# Blender v2.66 (sub 1) OBJ File: 'test_level.blend'
# www.blender.org
v -0.931775 1.000000 0.000000
v -0.931775 -1.000000 0.000000
v -5.325855 -1.000000 0.000000
v -0.931775 0.999999 2.000000
v -0.931775 -1.000001 2.000000
v -5.325856 0.999999 0.000000
v 1.757320 -1.000000 0.000000
v 1.757320 1.000000 0.000000
v 3.757319 1.000001 0.000000
v 3.757320 -0.999999 0.000000
v 1.757320 -1.000000 2.000000
v 1.757320 1.000000 2.000000
v 3.757319 1.000001 2.000000
v 3.757320 -0.999999 2.000000
v 0.091901 1.000000 0.000000
v 0.091901 -1.000000 0.000000
v 0.091901 0.999999 2.000000
v 0.091900 -1.000001 2.000000
v 1.757320 -3.334281 0.000000
v 3.757320 -3.334280 0.000000
v 1.757320 -3.334281 2.000000
v 3.757320 -3.334280 2.000000
v 5.507475 -0.999999 0.000000
v 5.507475 -0.999999 2.693458
v 5.507476 -3.334280 0.000000
v 5.507476 -3.334280 2.693458
v 7.241120 -0.999999 0.000000
v 7.241120 -0.999999 2.693458
v 7.241120 -3.334280 0.000000
v 7.241120 -3.334280 2.693458
v 0.554772 0.551818 0.000000
v 0.376216 0.424874 0.000000
v 0.575431 0.333712 0.000000
v 0.502140 0.436801 0.772103
v 0.380499 0.033175 0.772103
v 0.506948 0.030061 0.000000
v 0.314578 -0.074777 0.000000
v 0.319971 0.144239 0.000000
v 0.778597 0.149286 0.772103
v 0.898482 0.108956 0.000000
v 0.683727 0.065628 0.000000
v 0.753581 0.273275 0.000000
v 0.883650 0.492093 0.772103
v 0.889104 0.365723 0.000000
v 0.771484 0.550554 0.000000
v 0.990363 0.560001 0.000000
v 1.231986 0.586088 0.772103
v 1.299580 0.479177 0.000000
v 1.105600 0.581006 0.000000
v 1.290777 0.698082 0.000000
v 1.325981 0.259869 0.772103
v 1.446023 0.299729 0.000000
v 1.300480 0.135979 0.000000
v 1.231440 0.343899 0.000000
v 1.331510 -0.016588 0.772103
v 1.388213 -0.129653 0.000000
v 1.205241 -0.009161 0.000000
v 1.401076 0.089051 0.000000
v 0.745422 -0.182462 0.772103
v 0.871494 -0.172223 0.000000
v 0.691253 -0.296763 0.000000
v 0.673518 -0.078400 0.000000
v 1.193282 -0.348336 0.772103
v 1.319766 -0.349202 0.000000
v 1.129290 -0.457442 0.000000
v 1.130790 -0.238364 0.000000
v 0.452378 -0.436802 0.772103
v 0.576515 -0.412535 0.000000
v 0.411324 -0.556442 0.000000
v 0.369293 -0.341429 0.000000
v 0.894709 -0.646909 0.772103
v 1.015172 -0.608340 0.000000
v 0.867878 -0.770518 0.000000
v 0.801075 -0.561869 0.000000
v 0.513198 -0.823841 0.772103
v 0.541474 -0.947128 0.000000
v 0.392291 -0.786686 0.000000
v 0.605829 -0.737711 0.000000
v 1.082699 -0.951012 0.772103
v 1.209153 -0.953941 0.000000
v 1.016936 -1.059059 0.000000
v 1.022009 -0.840035 0.000000
v 1.392331 -0.713259 0.772103
v 1.474269 -0.809618 0.000000
v 1.267911 -0.736039 0.000000
v 1.434811 -0.594118 0.000000
v 1.563734 -0.293044 0.772103
v 1.688798 -0.311964 0.000000
v 1.484817 -0.391894 0.000000
v 1.517586 -0.175276 0.000000
v 1.569263 0.519739 0.772103
v 1.638381 0.413806 0.000000
v 1.442963 0.512847 0.000000
v 1.626444 0.632563 0.000000
v 0.677742 0.778944 0.772103
v 0.783296 0.848639 0.000000
v 0.685322 0.652684 0.000000
v 0.564608 0.835509 0.000000
v 1.021879 -0.110583 0.772103
v 1.067760 -0.228455 0.000000
v 0.896857 -0.091381 0.000000
v 1.101019 -0.011912 0.000000
vt 0.000000 0.000000
vt 1.000000 0.000000
vt 1.000000 1.000000
vt 0.000000 1.000000
vt 0.731934 0.217782
vt 0.840281 0.405443
vt 0.731934 0.342889
vt 0.623588 0.405443
vt 0.406169 0.405443
vt 0.514515 0.217782
vt 0.514516 0.342889
vt 0.622862 0.405443
vt 0.000363 0.593831
vt 0.108710 0.406169
vt 0.108709 0.531277
vt 0.217056 0.593831
vt 0.188025 0.108709
vt 0.000363 0.217056
vt 0.062917 0.108709
vt 0.000363 0.000363
vt 0.593831 0.217056
vt 0.406169 0.108709
vt 0.531277 0.108709
vt 0.593831 0.000363
vt 0.811975 0.514516
vt 0.999637 0.406169
vt 0.937083 0.514516
vt 0.999637 0.622862
vt 0.623588 0.811250
vt 0.731935 0.623588
vt 0.731934 0.748696
vt 0.840281 0.811250
vt 0.188750 0.217056
vt 0.297097 0.029394
vt 0.297097 0.154502
vt 0.405443 0.217056
vt 0.406169 0.782218
vt 0.514516 0.594557
vt 0.514516 0.719664
vt 0.622862 0.782218
vt 0.406169 0.593831
vt 0.514516 0.406169
vt 0.514516 0.531277
vt 0.622862 0.593831
vt 0.029394 0.891290
vt 0.217056 0.782944
vt 0.154502 0.891291
vt 0.217056 0.999637
vt 0.326128 0.782944
vt 0.434475 0.970606
vt 0.326128 0.908052
vt 0.217782 0.970606
vt 0.000363 0.782218
vt 0.108710 0.594557
vt 0.108709 0.719664
vt 0.217056 0.782218
vt 0.594557 0.217056
vt 0.702903 0.029394
vt 0.702903 0.154502
vt 0.811250 0.217056
vt 0.000363 0.405443
vt 0.108709 0.217782
vt 0.108709 0.342889
vt 0.217056 0.405443
vt 0.405443 0.217782
vt 0.405443 0.434475
vt 0.342889 0.326128
vt 0.217782 0.326128
vt 0.435201 0.782944
vt 0.622862 0.891291
vt 0.497754 0.891291
vt 0.435201 0.999637
vt 0.811249 0.406169
vt 0.811249 0.622862
vt 0.748696 0.514516
vt 0.623588 0.514516
vn 0.000000 -1.000000 -0.000000
vn 0.000000 0.000000 -1.000000
vn -0.414265 0.000000 0.910156
vn -0.000000 1.000000 0.000000
vn -1.000000 -0.000000 0.000000
vn 1.000000 0.000000 -0.000000
vn 0.000000 -0.000000 1.000000
vn -0.368364 -0.000000 0.929681
vn 0.414717 0.906281 -0.081638
vn -0.992221 -0.093984 -0.081638
vn 0.577503 -0.812296 -0.081637
vn 0.996360 -0.024533 -0.081638
vn -0.519426 -0.850607 -0.081638
vn -0.476934 0.875140 -0.081638
vn 0.944642 -0.317783 -0.081638
vn -0.747530 -0.659192 -0.081637
vn -0.197113 0.976976 -0.081638
vn 0.042975 -0.995735 -0.081638
vn -0.883819 0.460651 -0.081638
vn 0.840845 0.535085 -0.081638
vn 0.532611 -0.842414 -0.081638
vn -0.995857 -0.040047 -0.081637
vn 0.463245 0.882462 -0.081638
vn 0.945880 0.314080 -0.081638
vn -0.200938 -0.976196 -0.081638
vn -0.744942 0.662116 -0.081638
vn 0.446794 -0.890904 -0.081638
vn -0.994943 0.058517 -0.081637
vn 0.548149 0.832387 -0.081638
vn 0.993391 0.080679 -0.081638
vn -0.426825 -0.900642 -0.081638
vn -0.566567 0.819962 -0.081637
vn 0.996639 -0.006822 -0.081638
vn -0.504228 -0.859703 -0.081638
vn -0.492412 0.866525 -0.081638
vn 0.978148 0.191210 -0.081638
vn -0.323481 -0.942706 -0.081638
vn -0.654668 0.751496 -0.081638
vn 0.949198 0.303906 -0.081638
vn -0.211407 -0.973983 -0.081637
vn -0.737790 0.670075 -0.081637
vn 0.222802 -0.971439 -0.081638
vn -0.952693 0.292766 -0.081638
vn 0.729889 0.678674 -0.081638
vn 0.996395 -0.023080 -0.081638
vn -0.518185 -0.851364 -0.081638
vn -0.478210 0.874443 -0.081637
vn 0.645634 -0.759271 -0.081638
vn -0.980365 -0.179501 -0.081638
vn 0.334730 0.938771 -0.081637
vn 0.985450 -0.149076 -0.081638
vn -0.621828 -0.778887 -0.081638
vn -0.363622 0.927962 -0.081638
vn 0.544621 -0.834700 -0.081638
vn -0.995182 -0.054305 -0.081638
vn 0.450560 0.889005 -0.081638
vn 0.831719 0.549161 -0.081638
vn 0.059729 -0.994871 -0.081637
vn -0.891448 0.445709 -0.081637
vn 0.361521 -0.928783 -0.081638
vn -0.985110 0.151304 -0.081637
vn 0.623588 0.777478 -0.081638
vn -0.368364 -0.000000 0.929682
s off
f 5/1/1 2/2/1 16/3/1
f 1/1/2 2/2/2 6/4/2
f 4/1/3 6/2/3 5/4/3
f 2/1/1 5/2/1 3/3/1
f 4/1/4 1/2/4 6/3/4
f 11/1/5 12/2/5 7/4/5
f 12/1/4 13/2/4 8/4/4
f 13/1/6 14/2/6 10/3/6
f 14/1/7 11/2/7 21/3/7
f 7/1/2 8/2/2 10/4/2
f 14/1/7 13/2/7 12/3/7
f 15/1/6 17/2/6 18/3/6
f 2/1/2 1/2/2 16/4/2
f 4/1/7 5/2/7 18/3/7
f 1/1/4 4/2/4 15/4/4
f 22/1/1 21/2/1 19/3/1
f 11/1/5 7/2/5 21/4/5
f 7/1/2 10/2/2 19/4/2
f 20/1/2 10/2/2 25/4/2
f 25/1/2 23/2/2 29/4/2
f 22/1/1 20/2/1 25/3/1
f 14/1/8 22/2/8 24/4/8
f 10/1/4 14/2/4 24/3/4
f 27/1/6 28/2/6 30/3/6
f 23/1/4 24/2/4 27/4/4
f 26/1/1 25/2/1 29/3/1
f 24/1/7 26/2/7 30/3/7
f 33/5/9 32/6/9 34/7/9
f 31/8/10 33/5/10 34/7/10
f 32/6/11 31/8/11 34/7/11
f 37/9/12 38/10/12 35/11/12
f 38/10/13 36/12/13 35/11/13
f 36/12/14 37/9/14 35/11/14
f 41/13/15 42/14/15 39/15/15
f 42/14/16 40/16/16 39/15/16
f 40/16/17 41/13/17 39/15/17
f 45/17/18 46/18/18 43/19/18
f 46/18/19 44/20/19 43/19/19
f 44/20/20 45/17/20 43/19/20
f 49/21/21 50/22/21 47/23/21
f 50/22/22 48/24/22 47/23/22
f 48/24/23 49/21/23 47/23/23
f 53/25/24 54/26/24 51/27/24
f 54/26/25 52/28/25 51/27/25
f 52/28/26 53/25/26 51/27/26
f 57/29/27 58/30/27 55/31/27
f 58/30/28 56/32/28 55/31/28
f 56/32/29 57/29/29 55/31/29
f 61/33/30 62/34/30 59/35/30
f 62/34/31 60/36/31 59/35/31
f 60/36/32 61/33/32 59/35/32
f 65/37/33 66/38/33 63/39/33
f 66/38/34 64/40/34 63/39/34
f 64/40/35 65/37/35 63/39/35
f 69/41/36 70/42/36 67/43/36
f 70/42/37 68/44/37 67/43/37
f 68/44/38 69/41/38 67/43/38
f 73/45/39 74/46/39 71/47/39
f 74/46/40 72/48/40 71/47/40
f 72/48/41 73/45/41 71/47/41
f 77/49/42 78/50/42 75/51/42
f 78/50/43 76/52/43 75/51/43
f 76/52/44 77/49/44 75/51/44
f 81/53/45 82/54/45 79/55/45
f 82/54/46 80/56/46 79/55/46
f 80/56/47 81/53/47 79/55/47
f 85/57/48 86/58/48 83/59/48
f 86/58/49 84/60/49 83/59/49
f 84/60/50 85/57/50 83/59/50
f 89/61/51 90/62/51 87/63/51
f 90/62/52 88/64/52 87/63/52
f 88/64/53 89/61/53 87/63/53
f 93/65/54 94/66/54 91/67/54
f 94/66/55 92/68/55 91/67/55
f 92/68/56 93/65/56 91/67/56
f 97/69/57 98/70/57 95/71/57
f 98/70/58 96/72/58 95/71/58
f 96/72/59 97/69/59 95/71/59
f 101/73/60 102/74/60 99/75/60
f 102/74/61 100/76/61 99/75/61
f 100/76/62 101/73/62 99/75/62
f 18/4/1 5/1/1 16/3/1
f 2/2/2 3/3/2 6/4/2
f 6/2/3 3/3/3 5/4/3
f 12/2/5 8/3/5 7/4/5
f 13/2/4 9/3/4 8/4/4
f 9/4/6 13/1/6 10/3/6
f 22/4/7 14/1/7 21/3/7
f 8/2/2 9/3/2 10/4/2
f 11/4/7 14/1/7 12/3/7
f 16/4/6 15/1/6 18/3/6
f 1/2/2 15/3/2 16/4/2
f 17/4/7 4/1/7 18/3/7
f 4/2/4 17/3/4 15/4/4
f 20/4/1 22/1/1 19/3/1
f 7/2/5 19/3/5 21/4/5
f 10/2/2 20/3/2 19/4/2
f 10/2/2 23/3/2 25/4/2
f 23/2/2 27/3/2 29/4/2
f 26/4/1 22/1/1 25/3/1
f 22/2/63 26/3/63 24/4/63
f 23/4/4 10/1/4 24/3/4
f 29/4/6 27/1/6 30/3/6
f 24/2/4 28/3/4 27/4/4
f 30/4/1 26/1/1 29/3/1
f 28/4/7 24/1/7 30/3/7
