# Blender v2.66 (sub 1) OBJ File: 'test_level.blend'
# www.blender.org
v -0.931775 1.000000 0.000000
v -0.931775 -1.000000 0.000000
v -5.325855 -0.999999 0.000000
v -0.931774 1.000000 2.000000
v -0.931776 -1.000000 2.000000
v -5.325855 1.000001 0.000000
v 1.757320 -1.000000 0.000000
v 1.757320 1.000000 0.000000
v 3.757320 0.999999 0.000000
v 3.757319 -1.000001 0.000000
v 1.757320 -1.000000 2.000000
v 1.757320 1.000000 2.000000
v 3.757320 0.999999 2.000000
v 3.757319 -1.000001 2.000000
v 0.091901 1.000000 0.000000
v 0.091901 -1.000000 0.000000
v 0.091901 0.999999 2.000000
v 0.091900 -1.000001 2.000000
v 1.757319 -3.334281 0.000000
v 3.757319 -3.334281 0.000000
v 1.757319 -3.334281 2.000000
v 3.757319 -3.334281 2.000000
v 5.507475 -1.000001 0.000000
v 5.507475 -1.000001 2.693458
v 5.507474 -3.334281 0.000000
v 5.507474 -3.334281 2.693458
v 7.241119 -1.000001 0.000000
v 7.241119 -1.000001 2.693458
v 7.241119 -3.334282 0.000000
v 7.241119 -3.334282 2.693458
vt 0.000000 0.000000
vt 1.000000 0.000000
vt 0.000000 1.000000
vt 1.000000 1.000000
vn -0.000000 -1.000000 -0.000000
vn 0.000000 0.000000 -1.000000
vn -0.414265 0.000000 0.910156
vn 0.000000 1.000000 0.000000
vn -1.000000 0.000000 0.000000
vn 1.000000 -0.000000 0.000000
vn -0.000000 0.000000 1.000000
vn 1.000000 -0.000001 -0.000000
vn -0.368364 0.000000 0.929681
s off
f 5/1/1 2/2/1 18/3/1
f 1/1/2 2/2/2 6/3/2
f 4/1/3 6/2/3 5/3/3
f 2/1/1 5/2/1 3/4/1
f 4/1/4 1/2/4 6/4/4
f 11/1/5 12/2/5 7/3/5
f 12/1/4 13/2/4 9/4/4
f 13/1/6 14/2/6 10/4/6
f 14/1/7 11/2/7 21/4/7
f 7/1/2 8/2/2 10/3/2
f 14/1/7 13/2/7 12/4/7
f 15/1/8 17/2/8 18/4/8
f 2/1/2 1/2/2 16/3/2
f 4/1/7 5/2/7 18/4/7
f 1/1/4 4/2/4 17/4/4
f 22/1/1 21/2/1 20/3/1
f 11/1/5 7/2/5 21/3/5
f 7/1/2 10/2/2 19/3/2
f 20/1/2 10/2/2 25/3/2
f 25/1/2 23/2/2 29/3/2
f 22/1/1 20/2/1 26/3/1
f 14/1/9 22/2/9 24/3/9
f 10/1/4 14/2/4 23/3/4
f 27/1/6 28/2/6 30/4/6
f 23/1/4 24/2/4 28/4/4
f 26/1/1 25/2/1 30/3/1
f 24/1/7 26/2/7 30/4/7
f 2/2/1 16/4/1 18/3/1
f 2/2/2 3/4/2 6/3/2
f 6/2/3 3/4/3 5/3/3
f 12/2/5 8/4/5 7/3/5
f 8/3/4 12/1/4 9/4/4
f 9/3/6 13/1/6 10/4/6
f 22/3/7 14/1/7 21/4/7
f 8/2/2 9/4/2 10/3/2
f 11/3/7 14/1/7 12/4/7
f 16/3/6 15/1/6 18/4/6
f 1/2/2 15/4/2 16/3/2
f 17/3/7 4/1/7 18/4/7
f 15/3/4 1/1/4 17/4/4
f 21/2/1 19/4/1 20/3/1
f 7/2/5 19/4/5 21/3/5
f 10/2/2 20/4/2 19/3/2
f 10/2/2 23/4/2 25/3/2
f 23/2/2 27/4/2 29/3/2
f 20/2/1 25/4/1 26/3/1
f 22/2/9 26/4/9 24/3/9
f 14/2/4 24/4/4 23/3/4
f 29/3/6 27/1/6 30/4/6
f 27/3/4 23/1/4 28/4/4
f 25/2/1 29/4/1 30/3/1
f 28/3/7 24/1/7 30/4/7
