# Blender v2.66 (sub 1) OBJ File: ''
# www.blender.org
v -2.627641 -2.627641 -2.627641
v -2.627641 2.627641 -2.627641
v 2.627642 2.627641 -2.627641
v 2.627640 -2.627642 -2.627641
v -2.627643 -2.627640 2.627641
v -2.627640 2.627643 2.627641
v 2.627642 2.627640 2.627641
v 2.627641 -2.627641 2.627641
vt 0.634374 0.500000
vt 0.634375 0.749956
vt 0.384418 0.749957
vt 0.634374 0.250044
vt 0.384417 0.250044
vt 0.384417 0.000087
vt 0.884330 0.500000
vt 0.634375 0.999913
vt 0.384419 0.999913
vt 0.134462 0.749957
vt 0.134462 0.500001
vt 0.384418 0.500001
vt 0.634374 0.000087
vt 0.884331 0.749956
vn -0.000000 -0.000000 -1.000000
vn 0.000000 0.000000 1.000000
vn -1.000000 0.000000 -0.000000
vn 0.000000 1.000000 -0.000000
vn 1.000000 -0.000000 -0.000000
vn -0.000000 -1.000000 0.000000
vn -1.000000 0.000001 0.000000
s off
f 1/1/1 2/2/1 3/3/1
f 5/4/2 8/5/2 7/6/2
f 1/1/3 5/7/3 2/2/3
f 2/2/4 6/8/4 7/9/4
f 3/3/5 7/10/5 8/11/5
f 5/4/6 1/1/6 8/5/6
f 4/12/1 1/1/1 3/3/1
f 6/13/2 5/4/2 7/6/2
f 5/7/7 6/14/7 2/2/7
f 3/3/4 2/2/4 7/9/4
f 4/12/5 3/3/5 8/11/5
f 1/1/6 4/12/6 8/5/6
